<?xml version="1.0" encoding="UTF-8" standalone="no"?>
<svg
   xmlns:dc="http://purl.org/dc/elements/1.1/"
   xmlns:cc="http://creativecommons.org/ns#"
   xmlns:rdf="http://www.w3.org/1999/02/22-rdf-syntax-ns#"
   xmlns:svg="http://www.w3.org/2000/svg"
   xmlns="http://www.w3.org/2000/svg"
   xmlns:sodipodi="http://sodipodi.sourceforge.net/DTD/sodipodi-0.dtd"
   xmlns:inkscape="http://www.inkscape.org/namespaces/inkscape"
   width="793.70081"
   height="1122.5197"
   viewBox="0 0 210 297"
   version="1.1"
   id="svg8"
   inkscape:version="1.0.2 (e86c8708, 2021-01-15)"
   sodipodi:docname="logo.svg">
  <defs
     id="defs2" />
  <sodipodi:namedview
     id="base"
     pagecolor="#ffffff"
     bordercolor="#666666"
     borderopacity="1.0"
     inkscape:pageopacity="0.0"
     inkscape:pageshadow="2"
     inkscape:zoom="0.25"
     inkscape:cx="-298.72628"
     inkscape:cy="570.99292"
     inkscape:document-units="mm"
     inkscape:current-layer="g38"
     inkscape:document-rotation="0"
     showgrid="false"
     showborder="false"
     units="px"
     inkscape:window-width="1920"
     inkscape:window-height="963"
     inkscape:window-x="1792"
     inkscape:window-y="23"
     inkscape:window-maximized="1"
     showguides="true"
     inkscape:guide-bbox="true">
    <sodipodi:guide
       position="-1.0583333,370.025"
       orientation="1,0"
       id="guide144" />
  </sodipodi:namedview>
  <metadata
     id="metadata5">
    <rdf:RDF>
      <cc:Work
         rdf:about="">
        <dc:format>image/svg+xml</dc:format>
        <dc:type
           rdf:resource="http://purl.org/dc/dcmitype/StillImage" />
        <dc:title></dc:title>
      </cc:Work>
    </rdf:RDF>
  </metadata>
  <g
     inkscape:label="Layer 1"
     inkscape:groupmode="layer"
     id="layer1">
    <g
       id="g38"
       transform="matrix(0.26458333,0,0,0.26458333,-231.754,-149.00036)">
      <path
         id="path12"
         d="m 1452.5428,-331.30321 c -2.046,0.0365 -3.5712,2.74522 -4.0813,3.20172 -1.2108,0.78116 -2.6563,1.21065 -3.6328,2.3824 -2.3044,2.85126 -3.1243,9.374 -2.6166,10.35046 2.0311,4.37454 3.5934,9.25698 7.4211,12.45977 -0.1172,0.78116 -0.2734,1.52342 -0.3906,2.30459 -0.4296,0.0391 -0.8596,0.11718 -1.2892,0.19529 -0.5468,2.14821 -1.5623,4.10128 -2.1482,6.21043 -0.4687,1.44516 0.3903,2.89017 0.039,4.33532 -3.7887,18.27931 -7.2649,36.59752 -10.9363,54.91588 -0.7031,5.42911 -17.381,11.36643 -22.2633,19.21716 -18.4355,-0.42964 -15.5057,-0.19575 -17.8882,-1.25032 -22.3024,-10.35046 -16.4833,-4.13973 -20.1548,-9.68602 -1.4451,-2.49973 -2.8506,-5.50722 -5.819,-6.44462 -1.5624,-7.2258 -0.7817,-8.86625 2.2649,-19.91976 4.8042,-3.35901 6.4057,-1.91416 7.1869,-13.20202 0.2343,-1.09363 -0.7809,-1.79699 -1.4449,-2.46098 2.4998,-8.20225 4.2569,-13.66996 0.1167,-22.77056 -2.9293,-6.32745 -5.6242,-6.95284 -12.5375,-7.49965 -1.7967,-4.64795 -3.8667,-6.327 -10.1941,-5.78018 -4.687,-0.19529 -9.8035,-0.93786 -14.0999,1.48376 -9.4521,5.70252 -12.7727,16.28778 -11.5619,27.6147 0.1562,3.2809 1.8753,6.13231 3.008,9.13981 -1.1718,0.19529 -2.6562,0.70244 -2.6952,2.10854 0,4.33547 0.703,9.17886 4.1011,12.26447 0.5859,0.74211 1.562,0.62493 2.4213,0.78117 3.6324,15.81862 1.9531,10.11641 2.6952,19.45135 -3.4371,2.26539 -5.2729,4.60904 -5.0776,9.13981 -34.2932,17.8106 -30.3483,15.07652 -33.0043,19.13859 -6.0931,10.38951 -4.2964,24.48958 -6.8352,34.17604 -2.3826,22.10702 0.6254,23.66905 -5.5849,54.36891 -0.3906,-0.31247 -0.7033,-0.97646 -1.2892,-0.78117 -3.8668,0.89834 -1.758,5.70267 -0.1175,9.13981 -2.656,0.78116 -5.6633,1.01506 -7.8506,2.8508 -1.4842,1.24986 -0.5076,3.35947 -0.4295,4.960857 -0.3515,0.97646 -1.1716,1.64045 -1.6012,2.5388 -0.1562,1.01551 0.2733,1.95291 0.4295,2.92937 0.4296,1.60139 -0.7032,3.12452 -0.547,4.72591 0.4297,1.21081 1.6408,1.91355 2.2657,3.00719 1.328,2.38256 -3.3979,6.21073 6.9916,8.28082 3.9449,0.70305 10.8187,1.71857 12.0295,-2.14821 0.4297,-1.4061 1.6017,-2.53909 1.8751,-4.02331 0.2344,-0.9374 -0.5079,-1.71811 -0.9375,-2.46022 2.3044,-4.56983 2.6561,-9.84301 5.0386,-14.373767 -3.7105,21.989837 -7.4995,43.979837 -11.2491,65.969687 7.5383,4.49171 11.1712,1.44485 17.069,-0.11748 1.0546,235.834243 6.6399,151.624473 2.1482,215.406753 -0.4296,5.78063 1.6405,7.88978 5.8588,10.15516 -29.1766,37.65222 21.872,29.13739 24.3717,23.47393 5.8588,-12.06904 1.9923,-17.53736 -1.0542,-27.49724 4.5307,-4.60888 3.9058,-9.3737 1.9529,-32.49623 -0.4687,-6.91333 -1.1329,-0.0781 1.6012,-24.21618 1.328,-15.19369 0.9379,-0.39088 0.4692,-25.11481 -0.1562,-14.217243 2.3819,-16.482173 3.2803,-29.410483 9.0225,-98.46607 5.2339,-54.13502 8.9445,-83.3506503 8.7491,48.0026903 9.2181,72.2972903 12.6161,116.1207533 0.7031,75.61695 -2.1091,53.66601 5.6635,70.9298 -0.1172,3.7496 -0.9376,7.42123 -1.3281,11.4833 -0.1172,3.55431 0.079,7.10816 0.04,10.66247 -0.1172,1.67951 -0.5467,3.39793 -0.4295,5.11649 29.2547,5.39005 17.2244,3.04671 24.4892,2.1093 1.6796,0.0391 3.3205,0.54682 4.9609,0.78117 24.9973,4.17924 26.95,5.07803 38.1597,-2.65551 -0.1953,-1.13269 -0.3901,-2.22632 -0.7026,-3.31996 -3.32,-4.2183 -2.6956,-1.79714 -17.03,-8.67141 -2.656,-0.89834 -2.5779,-0.9763 -18.5527,-16.24811 -2.1482,-2.73409 -0.5073,-8.16289 -0.5073,-13.16236 -8.8272,-82.608393 -2.3438,-102.489253 2.8119,-203.259763 2.3435,-0.9374 7.0303,-1.13299 10.3893,-6.5621 -16.9122,-85.225297 -8.241,-41.67525 -8.4753,-124.986687 6.4446,-5.8197 37.3004,-35.19157 43.0419,-41.40184 1.9139,-2.0701 6.6014,-8.55378 6.9138,-11.13163 4.6089,-22.06796 7.2647,-44.48684 9.4129,-66.94539 0.1172,-1.24986 1.0938,-2.18757 1.3282,-3.43744 0.6249,-2.3435 -0.1566,-4.72575 -0.3128,-7.10831 -0.5859,-0.27341 -1.2107,-0.50791 -1.7965,-0.74226 0.7421,-1.13269 1.6017,-2.26569 1.8751,-3.63273 0.4296,-2.26538 1.1714,-4.53062 1.0542,-6.87412 -0.1562,-4.687 0.7034,-16.75587 -4.1789,-12.92815 -0.2343,-1.52328 -0.8204,-3.39839 -2.4999,-3.82803 -1.0155,-0.35152 -1.7967,0.50822 -2.5388,1.05504 -0.3515,-1.05458 -0.4295,-2.26554 -1.2106,-3.08577 -1.2499,-1.01551 -3.2423,-1.13314 -4.375,0.11672 -1.0985,-1.55013 -2.136,-2.08546 -3.0659,-2.06887 z m 390.9404,22.18697 c -0.8017,0.0102 -1.5753,0.20139 -2.1734,0.77811 -1.4452,1.36705 -2.695,3.04656 -3.1247,5.07759 -5.2729,2.3435 -5.663,1.79714 -6.5613,3.39853 -10.038,18.4746 5.5066,21.83331 7.5767,30.15274 -0.3125,-0.0781 -0.9371,-0.27357 -1.2496,-0.35168 0,29.80151 -5.8194,48.66715 -8.28,73.70354 -10.0771,5.74158 -26.0524,12.69351 -35.2311,19.06002 -11.8738,-3.63243 -24.2945,-5.19461 -36.676,-5.70237 -2.734,-3.63242 -5.6633,-7.10846 -8.2411,-10.77995 -0.1172,-4.37453 3e-4,-8.78843 -0.039,-13.20202 6.4446,-1.21081 9.1785,-11.87358 9.2176,-18.39633 -0.8593,-1.01551 -2.1874,-0.85928 -3.2811,-0.39058 1.5624,-2.53879 1.8364,-5.50677 2.5785,-8.31897 0.5468,-1.56233 -1.7576,-15.27181 -1.9529,-16.4045 -0.3515,-2.26539 -5.1954,-14.37347 -13.5148,-11.32692 -10.8973,-7.81167 -7.772,-12.53819 -19.2942,-7.10908 -5.1557,-1.01551 -10.624,-0.19483 -15.3892,2.03149 -12.9673,5.78064 -10.077,12.92786 -12.3033,15.74006 -4.6089,6.40557 -3.0075,7.26485 -1.5624,9.17871 0.7421,0.85928 0.5073,2.109 0.7026,3.16357 0.664,5.27288 -0.5854,3.04716 3.5939,11.95246 -0.625,-0.0781 -1.2502,-0.27341 -1.8752,-0.19529 -0.5858,0.27341 -0.9374,0.81977 -1.367,1.28847 0.8983,7.57732 2.7733,16.13125 9.1398,20.85731 0.3515,10.93633 4.3353,14.88153 8.4365,20.03723 -0.664,2.42162 -1.7575,4.72591 -2.5777,7.06941 -11.1317,3.90583 -21.7943,8.90515 -33.0821,12.34228 -1.8358,0.62493 -3.8282,0.82022 -5.5468,1.75762 -3.1247,1.87481 -5.0382,5.19492 -8.0848,7.18689 -3.2027,1.71857 -12.4988,59.134327 -12.2644,66.789757 -1.0156,22.57573 -7.3822,56.20465 -4.8434,56.71241 -0.1953,49.87749 -1.0933,47.14326 2.0704,50.22887 2.0701,1.99198 4.6476,3.39823 7.3036,4.45281 7.2648,14.10006 2.8512,16.59979 1.5623,22.84913 -2.1873,8.74906 1.133,14.72514 10.2727,17.14676 -0.7812,8.63189 3.593,15.62334 3.7883,38.472473 2.1092,19.64634 6.9529,38.9018 9.6479,58.47003 3.5934,26.05191 0,25.58306 3.4367,87.33431 0.8592,15.77957 -0.2731,13.67042 5.3903,82.02251 -11.9518,4.02301 -29.6062,4.06207 -29.489,18.35742 0.039,1.09364 -1.1721,1.79684 -0.8987,2.89048 0.9765,6.87426 3.359,5.78046 16.2092,8.63176 14.3344,2.8512 4.2182,1.4844 25.2316,-0.2342 0.703,1.1717 1.0942,2.5781 1.9926,3.6327 10.741,3.5933 25.6613,1.5626 27.3408,-0.039 0.9374,-1.6795 1.0539,-3.6721 1.5226,-5.5078 15.3109,1.0155 6.9915,-0.3125 21.4821,-1.1718 0.5859,0.9765 1.1724,1.9924 1.7973,3.0079 7.8508,2.2264 15.4279,2.0308 21.3257,0.8591 2.9685,-0.7812 3.0071,-0.2732 4.0226,-8.08486 0.1172,-1.32798 0.4693,-2.69487 -0.1556,-3.94473 -0.625,-1.28893 -0.1566,-2.69519 -0.1175,-4.06223 0.1953,-3.71054 0.3515,-7.46014 -0.3906,-11.13162 -0.3125,-1.79669 -1.7579,-3.32012 -1.2892,-5.23394 7.1086,-49.76033 5.1171,-22.84901 8.0855,-113.11282 0.3515,-6.60086 2e-4,-6.79615 -1.2106,-42.18301 2.2653,-65.50084 2.0307,-60.73557 2.226,-61.55579 6.3665,-26.715913 13.2406,-47.963803 3.5541,-72.609613 7.4211,-19.06047 5.5462,-14.13942 5.7024,-19.64665 -1.2108,-29.64526 -10.1157,-53.07998 -9.8813,-64.71937 1.0546,-34.01981 -0.3518,-6.17091 9.2565,-60.227647 19.4901,-18.66989 38.8238,-37.53507 58.6264,-55.85343 0.9765,-1.71857 1.7191,-3.55461 2.8127,-5.19506 4.687,-8.1632 7.3817,-1.75763 6.5224,-40.23009 -0.7421,-23.12254 -1.4058,-30.50457 1.094,-60.54043 -0.8593,-0.11718 -1.7184,-0.15624 -2.5777,-0.19529 0.039,-1.28893 -0.1177,-2.73439 0.7026,-3.82803 3.9839,-5.66346 4.2573,-6.48322 4.4917,-12.2248 0.078,-7.22579 10e-5,-17.38127 -6.093,-13.20202 -0.6249,-4.17925 -3.3203,-6.67898 -6.5621,-3.51525 -0.9374,-2.89032 -0.6638,-4.72561 -4.7259,-4.99901 -1.0546,-0.15624 -1.9134,0.58572 -2.6555,1.21065 -0.5468,-0.85928 -1.0552,-1.99182 -2.1879,-2.18711 -0.5126,-0.10253 -1.0687,-0.20018 -1.6218,-0.22581 -0.1152,-0.005 -0.2303,-0.008 -0.3448,-0.006 z m -953.72925,5.57649 c -1.2622,-0.006 -2.614,0.64309 -3.7723,2.38851 -1.2499,-1.36704 -3.4759,-1.56188 -4.9601,-0.5073 -1.2108,0.9374 -1.4058,2.5777 -1.8354,3.94474 -2.9685,-3.24184 -5.93707,-1.99198 -5.81989,3.31996 -7.14768,-5.54629 -6.7185,13.43576 -2.22679,23.9034 0.66399,1.44516 2.0315,2.5391 2.0315,4.2186 -0.42965,0.23435 -0.82069,0.46825 -1.25033,0.7026 0,0 0.11748,25.81771 4.02331,77.10131 2.4607,29.05941 2.3437,25.73991 7.9681,32.88758 21.2086,24.13806 47.9245,43.70613 50.5805,58.431127 3.1247,16.05298 6.7963,32.02799 10.3116,48.00285 -7.9679,56.2830697 -9.5696,21.91099 -17.3032,86.12288 -1.0155,8.04602 -1.7578,16.13171 -3.4763,24.06055 -0.8203,2.14821 3.1635,3.16372 6.6788,2.14821 -6.2103,51.127373 12.2643,93.115083 12.1081,124.791403 -1.4842,88.85771 0.1173,25.03578 6.7963,146.23383 -0.078,0.82022 0.6254,1.32814 1.055,1.91401 -1.0155,0.50776 -2.3436,0.85956 -2.6952,2.07037 -0.3124,1.4061 0.195,2.89031 -0.1174,4.29641 -1.3671,6.63992 -2.1092,17.73203 3.5152,21.01293 7.5773,0.5859 15.2718,1.0161 22.8491,-0.1556 10.2724,-1.3671 9.7256,-17.88905 2.7341,-26.09126 1.0155,-2.65597 2.8517,-149.43693 4.1797,-159.82645 3.0466,-32.3403 2.2257,-74.28957 3.2803,-84.796263 0.5078,16.716973 3.7498,58.275193 3.8669,81.202443 -0.2343,33.19959 -4.2964,163.14655 -1.5623,163.88866 -1.1327,0.85928 -2.2263,2.22632 -1.7576,3.71054 1.2108,3.71054 -3.2026,21.32633 5.234,22.53713 6.5227,1.0155 13.20175,0.8979 19.72445,0.1167 5.3901,-0.664 8.3582,-4.3352 8.866,-9.4518 0.4687,-6.01498 -1.523,-12.26447 -5.546,-16.75618 1.0936,-1.56234 3.1245,-6.75725 3.1636,-8.35864 2.9684,-50.97114 2.8511,-48.35423 3.3588,-50.58056 7.5383,-41.05031 7.0308,-44.64368 7.148,-52.72876 4.6089,-140.024163 14.6859,-102.68423 11.3269,-164.083943 2.0311,-1.64045 5.8586,-2.10915 5.5071,-3.51525 -5.5854,-64.7977803 -11.4833,-71.32038 -14.0221,-89.6778 -0.3515,-3.16373 -0.8979,-6.36651 -0.5073,-9.5693 1.1717,-14.25629 1.8746,-24.37225 3.5541,-27.18445 1.8748,2.30444 17.1464,91.27889 17.6541,125.68928 0.664,1.71857 0.6251,3.9452 -0.6248,5.39036 -3.6715,4.80418 -4.8434,14.60812 -3.6716,16.91257 1.2108,1.71856 2.7734,3.59306 4.9998,3.78835 0.1953,-1.13269 0.3515,-2.3438 -0.1953,-3.43744 -0.1953,-0.82022 -0.9763,-1.83574 -0.2342,-2.53879 1.4061,0.0781 0.3512,9.21777 4.9601,8.78813 1.9138,-0.39059 3.2417,1.48467 5.1165,1.44561 1.1327,-0.23435 2.1482,-0.85959 3.3199,-1.09394 1.0937,0.0781 2.0706,1.01583 3.2033,0.70336 1.7185,-0.4687 2.6169,-2.26523 4.2964,-2.77299 1.7576,-0.62493 2.3821,-2.5394 3.0461,-4.14079 2.9684,-8.90531 -0.4294,-9.99848 -3.7884,-16.71652 -0.4296,-1.91386 -0.4687,-3.86708 -0.7811,-5.78094 0.703,0.0391 1.4062,0.0783 2.1093,0.15639 -2.8513,-27.3799 -3.5939,-63.9382003 -4.1797,-91.66962 -12.5378,-100.731457 -10.1546,-95.693087 -21.4424,-103.270407 -5.351,-3.43713 -11.0932,-6.24948 -16.8348,-8.94451 -12.2253,-56.00966 5.9369,-100.80912 -33.00435,-103.62132 -4.6089,-0.31247 -8.7485,-3.00749 -13.4355,-2.73408 -15.6233,0.42964 -31.0909,20.97387 -31.1299,43.27618 -0.2734,18.39648 4.1792,10.07721 -0.1953,37.06652 -1.6405,8.98342 -3.3978,17.92778 -5.7413,26.75496 -6.0931,-0.35152 -5.7027,-0.62463 -7.968,-2.42131 -11.327,-9.56929 -24.7238,-22.1856 -33.0432,-28.00529 -5.976,-58.89998 -11.9911,-90.84939 -10.5069,-92.84137 3.6715,-6.05404 8.3194,-12.73302 7.8117,-15.81863 -2.0311,-13.98288 -4.1791,-12.49897 -6.8741,-12.42085 -0.625,-1.52328 -1.1716,-3.08516 -1.7966,-4.60843 -0.5797,-1.43784 -2.2341,-2.84842 -4.079,-2.85767 z m 277.79945,25.82352 c -1.4842,1.71856 -2.7731,3.59336 -4.2964,5.27287 -5.1947,4.96041 -4.8429,3.71039 -6.7177,4.14003 -3.0466,0.42965 -2.4605,1.87511 -9.4129,-0.46839 0.7421,2.18727 1.5233,4.41329 1.9529,6.71773 -1.6014,2.03103 -3.5548,3.71115 -5.5467,5.31254 -1.6405,1.13269 -2.1479,3.16342 -3.2025,4.76481 l 3.1635,3.16358 c 0.078,6.13216 -0.3908,6.28839 1.0543,19.13858 -1.1717,0.15624 -2.3435,0.27357 -3.5152,0.35168 -0.8984,1.4061 -1.7183,3.12482 -1.2496,4.84339 2.2263,9.374 4.8432,11.28755 6.4446,13.16235 1.0546,0.58588 2.3046,0.78117 3.4764,1.17176 4.1011,9.29588 2.9289,10.23374 2.4602,20.5842 0.078,1.67951 -1.2497,2.88971 -1.9918,4.25675 -0.5468,0.74211 -0.8592,1.83635 -1.7966,2.18787 -32.1059,12.34244 -33.6292,16.24797 -41.7924,26.63749 -4.9995,5.6244 0.7031,52.61128 4.4917,57.493567 4.9995,10.15517 11.5614,58.23644 10.1163,65.11071 -2.8903,16.95132 -6.8744,33.70688972 -10.5069,50.50198 2.0311,0.89834 4.062,1.87526 6.093,2.81266 -10.2724,53.66616 -7.3822,51.3222 -6.601,82.334523 0.2734,7.10862 -2.4604,133.61887 -10.6236,194.23742 -1.1327,8.78813 -2.1093,17.65452 -1.914,26.52077 -0.1562,1.83574 4.6868,4.37438 5.7024,4.92119 -4.648,4.33548 -2.9679,5.38994 -3.6709,7.46003 -1.8357,6.36647 -1.5236,13.24046 0.078,19.60696 0.8983,2.695 0.2732,5.8203 1.9918,8.2419 2.4607,3.2809 29.9973,3.554 35.817,1.6402 0.4296,-0.8593 0.8586,-1.7574 1.3273,-2.6166 3.4762,0.3515 7.0305,1.4842 11.327,-2.1483 1.2889,-1.8357 1.6017,-4.2964 1.0939,-6.44458 -0.4296,-1.95292 -0.2734,-3.98438 -0.3906,-5.9373 -0.1562,-7.26485 -4.1792,-14.45159 -8.0069,-16.79509 10.2332,-7.61637 -1.7188,5.85887 26.4032,-229.11609 2.3045,5.03853 4.8823,9.95988 7.0305,15.03746 20.4666,88.5062 19.2947,83.19457 19.1775,85.06937 0.2734,94.16965 0.899,96.08292 1.2115,127.29054 -0.1953,2.07009 1.5231,3.8283 3.3588,4.53135 -4.8432,0.66399 -3.1637,4.92108 -3.5152,6.71776 -1.0937,6.56177 -1.4455,18.55258 3.2025,22.49748 2.2653,1.9138 5.3511,2.1093 8.1633,2.3046 7.1086,0.4686 24.8802,2.3827 32.809,-1.9919 0.2734,-0.6249 0.4295,-1.2889 0.6248,-1.9529 5.8197,-0.4296 1.2892,1.6402 10.2726,-3.828 3.3591,-2.0701 4.9992,-5.1168 3.9837,-9.72568 -0.2344,-1.13269 -1.4838,-1.75763 -1.4838,-2.92938 -0.3906,-5.50722 -3.5546,-13.7481 -8.7103,-15.54479 -10.5067,-116.78442 8.2801,-81.1635 -14.5691,-295.398513 -0.039,-1.17175 -6.3659,-11.6786 -6.6002,-12.06918 12.4596,-16.6388603 10.9749,-17.4198903 5.7802,-51.40063 -4.4917,-28.35635 -4.7258,-27.14555 -4.5696,-28.51259 3.2028,-31.4029 2.7729,-29.99619 3.5931,-31.40229 26.5987,-52.689697 20.5059,-47.573667 21.209,-66.829427 -3.1247,-15.89675 -14.1002,-40.73724 -17.1468,-62.64897 h -1.7576 c -0.5078,-1.48422 -0.9763,-3.0081 -1.4059,-4.53138 4.8432,-13.16266 4.5307,-16.20921 -0.9765,-27.92671 -1.9139,-3.63243 -3.7885,-7.42094 -6.6788,-10.38937 -0.2734,-0.42964 -2.5394,-5.93672 -5.5079,-5.11649 -6.4446,3.7496 2.5783,20.34909 1.4457,28.00453 -0.8593,-7.65544 -2.3825,-12.14715 -5.8977,-5.27288 -0.5468,-0.70305 -1.1327,-1.36704 -1.7576,-1.95292 1.328,-6.0931 5.6244,-20.03693 -0.3906,-20.11504 -1.7967,0.50776 -2.9294,2.10915 -3.7106,3.71054 -0.703,1.56233 -2.1483,2.5394 -3.0857,3.9455 -1.2499,-0.58587 -2.5393,-1.133 -3.7891,-1.67981 -1.3671,-2.96844 -1.0934,-3.67164 -5.7413,-5.62456 0.8593,-1.99197 0.8593,-4.2572 0.1953,-6.28824 -2.695,1.64045 -5.937,1.17191 -8.9445,1.13285 0,-1.67951 -0.1952,-3.35887 -0.8201,-4.9212 -2.8903,1.36704 -4.3742,2.96813 -8.6706,3.00719 -2.4607,-1.01552 -2.9689,-3.35917 -8.0856,-4.25751 z m 383.8092,29.11143 c -1.1558,0.0461 -2.4168,0.63012 -3.7326,2.17414 -4.0621,-1.2108 -8.3971,-1.0149 -12.4201,0.0397 -27.7314,7.38203 -26.0519,39.99544 -26.3644,45.97136 -0.5468,66.55542 0.7028,57.65027 -4.9998,65.38382 -1.2889,-1.95292 -4.7262,-5.97577 -6.601,-6.28824 -0.7421,0.0781 -1.4839,0.31201 -2.226,0.5073 -3.0856,-7.14768 -0.8596,-4.33563 -7.9291,-15.58443 -1.3671,-2.38256 -7.343,-7.42093 -8.5929,-5.31178 -0.7811,3.35901 4.0625,7.61622 4.375,8.04586 -0.2343,0.50776 -0.3906,1.01567 -0.5859,1.52343 -0.9374,-0.31247 -1.8749,-0.62493 -2.6951,-1.17175 -2.9685,-2.03103 -6.21,-3.51494 -9.2566,-5.35069 -1.6014,-1.01551 -3.1251,-2.53925 -5.1561,-2.61736 -0.8202,-0.0391 -1.1715,0.78147 -1.6402,1.28923 0.4297,0.82022 0.937,1.56248 1.4838,2.30459 -1.3671,-0.85928 -2.5774,-2.18757 -4.2178,-2.46098 -1.4452,-0.11717 -2.2653,1.40641 -1.9919,2.65627 -1.9529,2.69503 0.039,6.79631 -0.8986,8.16335 -0.9374,-1.71857 0.8986,-12.92846 -1.8355,-18.31852 -0.2343,-0.0781 -0.6644,-0.19574 -0.8597,-0.27386 -0.3906,-0.54682 -0.4689,-1.63984 -1.3281,-1.52267 -0.7421,0.31247 -1.4447,0.66339 -2.265,0.54621 -0.703,0.50776 -1.1716,1.25048 -1.6012,1.99259 -1.4452,-0.27341 -1.836,1.445 -2.461,2.3824 -1.8748,0.54682 -1.5234,0.82023 -3.4763,12.49867 -2.0701,12.96737 4.4531,18.08371 8.6714,22.92694 -1.3671,4.10113 0.2729,2.65612 0.5073,4.45281 5.9759,27.106477 9.1401,34.839727 18.8266,56.712397 1.5623,3.7496 5.0769,6.01544 7.9673,8.67141 8.5147,-2.14821 13.5924,-6.32776 28.4736,-17.69373 12.4206,24.99733 9.1009,6.52304 13.9832,40.34757 -0.2734,1.91386 -9.062,41.4016897 -12.7725,57.45466 -1.1718,5.50723 -3.1633,7.49875 -2.4602,31.94927 0.703,16.56074 2.3821,33.12163 4.6084,49.565193 1.4061,0.15623 2.8125,0.35167 4.2186,0.54697 11.7956,53.11934 9.2571,35.93382 12.0303,65.38381 4.2183,51.71323 0.5468,24.56724 5.4681,64.17241 3.9449,29.95775 9.2175,68.07927 3.0072,92.41262 -3.7105,13.94383 -10.8191,19.09925 -14.6468,19.60701 -13.6314,2.77311 -6.1714,21.20854 19.1774,16.24814 1.2499,-0.1953 2.3048,-1.0154 3.0469,-1.9918 1.8748,-2.4607 4.5306,-4.1794 6.8741,-6.21048 0.5078,3.00748 1.1324,5.97598 1.6402,8.98338 1.367,1.0937 3.1246,0.547 4.687,0.547 3.9058,-13.94381 3.3594,-11.83454 4.9608,-13.90464 9.0616,-11.48315 2.4215,-18.55314 1.406,-23.31826 -4.648,-21.5602 4.3745,-69.56247 4.687,-112.60475 3.9839,14.29534 -0.5075,-6.91348 16.522,98.46595 2.5388,16.63881 4.1792,25.19231 -7.2258,36.79264 -2.3435,0.82023 -5.1171,1.4848 -6.5232,3.75019 -0.8984,1.36704 -0.3123,3.16377 0.7422,4.29647 4.648,5.1166 12.499,4.3741 16.522,4.2178 5.8588,-0.703 4.8822,-0.312 10.1941,-5.9755 1.1327,2.1873 1.4453,4.6085 2.1093,6.952 1.4842,-0.039 2.9289,-0.078 4.4131,-0.078 2.4216,-22.34139 12.694,-13.59275 2.5388,-36.40282 -7.7726,-53.23652 5.0384,-88.70106 -5.4292,-127.44692 -5.7807,-21.16962 -9.6079,-23.39579 -9.4908,-28.74679 1.7967,-31.4029 -0.508,-16.71758 9.6471,-65.65768 0.8203,-0.0391 1.6794,-0.11717 2.3824,-0.58587 2.8513,-19.099533 13.0457,-45.502663 11.2881,-69.406373 -0.3516,-5.6244 -0.3906,-5.0776 -17.9669,-63.4698 -1.367,-4.60889 -1.953,-42.18271 2.3824,-57.29828 5.9369,-24.567697 13.8662,-47.026697 -1.2884,-60.228417 -3.6325,-1.09364 -7.3039,-1.99183 -10.9364,-2.96828 -4.3354,-6.05405 -5.4289,-13.59185 -6.0929,-20.81764 -0.5078,-7.38203 -1.5628,-2.3435 -2.4221,-28.3173 -0.703,-5.78063 -4.6086,-21.52145 -8.0848,-30.58298 -2.5388,-6.99145 -9.6864,-10.31141 -15.2327,-14.64688 -1.1022,-0.89713 -2.9275,-2.77017 -5.1341,-2.68221 z m -342.4851,11.35285 c 0.1171,0.62494 0.1949,1.25018 0.2731,1.87511 -0.1953,0.0391 -0.547,0.0389 -0.7423,0.0389 0,-0.664 0.1176,-1.32814 0.4692,-1.91402 z m 6.0929,17.14677 c 1.1718,1.67951 2.578,3.08576 3.8669,4.64809 -0.5858,0.1953 -1.2106,0.39059 -1.7965,0.58588 0.3515,1.8748 1.3669,3.51494 1.7965,5.35069 0.8984,13.86571 1.5622,27.77048 2.5777,41.59713 -12.3424,-9.25683 -9.3351,-7.10831 -25.5443,-14.33411 0.1563,-2.14821 0.352,-4.25751 0.4692,-6.40572 -1.6405,-0.11717 -3.5935,-0.42949 -4.2575,-2.18711 16.9904,-23.27877 16.287,-23.23971 17.8493,-24.02088 2.1092,-1.21081 4.1013,-2.85141 5.0387,-5.23397 z m 249.5828,66.75086 c 1.6404,1.13269 3.3984,2.18741 4.8045,3.67163 -1.7186,-1.05457 -3.2422,-2.38271 -4.8045,-3.67163 z m -0.7812,10.42827 c 7.1477,9.10059 8.2413,12.14775 21.0915,17.03004 -0.3515,0.39059 -0.7027,0.7415 -1.0542,1.13209 0.5858,1.17175 1.8748,1.48452 2.9293,2.07039 2.5388,2.26539 4.2182,5.31224 6.093,8.12444 -4.2183,7.81167 0.1167,2.6163 -8.8667,14.02134 -6.4837,-9.68647 -13.2799,-19.37233 -17.1857,-30.42584 -0.2343,-4.84324 2e-4,-3.51556 -1.9918,-4.99977 -0.8202,-2.22633 -1.2497,-4.57013 -1.0154,-6.95269 z m 270.8696,246.41922 c 0.664,1.67951 0.5079,3.47635 0.547,5.23397 7.7726,227.00706 4.6479,204.43122 9.7646,218.76563 -4.1402,2.42158 -9.1398,1.6014 -13.6315,2.73409 -0.3125,-1.21081 -0.742,-2.38272 -1.406,-3.47635 3.0075,-11.13163 2.4602,-6.87415 2.4602,-12.14699 -2.695,-139.28206 -2.8119,-66.67262 2.2657,-211.11035 z M 951.31665,365.61432 c -17.4801,0 -31.0394,4.1033 -40.6779,12.3095 -9.4752,8.2062 -14.2128,19.8387 -14.2128,34.8984 0,15.1499 4.5738,26.8729 13.7223,35.1693 9.1484,8.2964 22.0549,12.4445 38.7181,12.4445 13.3959,0 23.5241,-2.4347 30.3854,-7.3043 1.797,4.5089 6.6984,6.7635 14.7033,6.7635 10.94555,0 16.41755,-3.3819 16.41755,-10.1453 0,-1.2625 -0.4898,-4.373 -1.47,-9.3328 -0.4901,-2.4348 -0.7354,-4.96 -0.7354,-7.5752 0,-2.4348 0.1638,-3.968 0.4905,-4.5992 0.8168,-1.4429 2.8584,-2.1643 6.1257,-2.1643 h 0.7354 c 6.0445,0 9.0666,-2.6149 9.0666,-7.8452 0,-6.4928 -4.1655,-9.7394 -12.4971,-9.7394 -2.1238,0 -5.3911,0.1353 -9.802,0.4058 -4.41095,0.1804 -7.67825,0.2708 -9.80205,0.2708 -2.2871,0 -5.799,-0.091 -10.5366,-0.2708 -4.7375,-0.2705 -8.2502,-0.4058 -10.5373,-0.4058 -9.9653,0 -14.9482,3.3363 -14.9482,10.0095 0,5.3205 3.4311,7.981 10.2924,7.981 0.1634,0 0.408,-0.045 0.7347,-0.135 h 0.7354 c 1.3069,-0.1804 2.1236,-0.2709 2.4503,-0.2709 h 0.2456 c 2.4505,0 3.6755,1.5781 3.6755,4.7343 0,3.0661 -1.7156,5.6362 -5.1463,7.7102 -3.2673,1.984 -7.2698,2.976 -12.0074,2.976 -15.1929,0 -22.7888,-9.6038 -22.7888,-28.8117 0,-8.4767 1.7963,-15.1052 5.3903,-19.8846 4.4109,-5.9518 10.7826,-8.9278 19.1142,-8.9278 3.4307,0 6.5343,0.6766 9.3115,2.0292 2.9405,1.3527 4.7376,2.9308 5.3911,4.7343 l 2.2054,6.4927 c 1.4703,4.4187 6.8616,6.6285 16.1734,6.6285 4.7375,0 8.49475,-0.8118 11.27195,-2.4351 2.9406,-1.6232 4.4109,-3.7425 4.4109,-6.3576 0,-0.9018 -0.2445,-2.7505 -0.7346,-5.546 -0.3268,-1.8937 -0.4906,-3.246 -0.4906,-4.0576 0,-1.2625 0.1638,-3.1112 0.4906,-5.546 0.4901,-2.4348 0.7346,-4.2387 0.7346,-5.411 0,-2.3446 -1.3065,-4.2381 -3.9203,-5.681 -2.4505,-1.533 -5.71795,-2.2992 -9.80205,-2.2992 -6.2079,0 -10.5372,1.984 -12.9877,5.9518 -6.8613,-4.5089 -16.8264,-6.7635 -29.8956,-6.7635 z m 427.85675,1.7584 c -4.5743,0 -8.3322,0.992 -11.2728,2.9759 -2.9406,1.8937 -4.4109,4.3285 -4.4109,7.3044 10e-5,2.3446 0.899,4.3286 2.696,5.9518 1.9604,1.6232 4.3288,2.435 7.106,2.435 0.4901,0 1.2252,-0.046 2.2054,-0.1358 1.1436,-0.09 1.961,-0.135 2.4511,-0.135 2.2871,0 3.4306,0.8118 3.4306,2.435 v 49.3722 c 0,1.6232 -1.1435,2.4351 -3.4306,2.4351 h -1.9605 c -0.3268,-0.09 -0.8174,-0.1807 -1.4708,-0.2708 h -1.2252 c -2.6138,0 -4.9008,0.8118 -6.8611,2.435 -1.9604,1.6232 -2.9409,3.6072 -2.9409,5.9518 0,3.0661 1.4703,5.5457 4.4109,7.4394 2.9406,1.8937 6.78,2.8409 11.5176,2.8409 3.5941,0 8.9853,-0.1353 16.1734,-0.4058 7.188,-0.2706 12.5786,-0.4059 16.1726,-0.4059 3.9207,0 9.7203,0.1353 17.3985,0.4059 7.6781,0.2705 13.4777,0.4058 17.3985,0.4058 12.5791,0 22.708,-2.4804 30.3862,-7.4401 7.8415,-5.05 11.7617,-11.6329 11.7617,-19.7489 0,-11.8133 -9.8836,-19.1625 -29.6508,-22.0482 16.0098,-3.6972 24.0148,-10.1904 24.0148,-19.4788 0,-6.6732 -3.4304,-12.039 -10.2917,-16.097 -6.698,-4.1482 -15.6012,-6.2219 -26.71,-6.2219 -3.9207,0 -9.8841,0.1801 -17.889,0.5408 -8.0049,0.2706 -13.9675,0.4059 -17.8882,0.4059 -4.7376,0 -9.6383,-0.1353 -14.7026,-0.4059 -6.698,-0.3607 -12.1708,-0.5408 -16.4182,-0.5408 z m 348.9435,0 c -7.5148,0 -11.272,2.7054 -11.272,8.116 0,4.8696 2.859,7.3044 8.5768,7.3044 0.1634,0 0.5717,-0.045 1.2252,-0.135 h 1.47 c 1.3069,-0.1804 2.1236,-0.2708 2.4503,-0.2708 2.1237,0 3.1857,1.8935 3.1857,5.681 v 49.9138 c 0,3.7874 -1.3065,5.681 -3.9203,5.681 -0.1634,0 -0.4902,-0.045 -0.9803,-0.135 h -1.2252 c -0.49,-0.09 -1.3075,-0.1358 -2.451,-0.1358 -5.0643,0 -7.5966,2.1649 -7.5966,6.4934 0,5.6812 4.0848,8.5219 12.2531,8.5219 2.4504,0 5.1457,-0.091 8.0863,-0.2708 4.4108,-0.2705 7.8412,-0.4058 10.2917,-0.4058 3.2673,0 6.3716,0.1353 9.3122,0.4058 4.2475,0.1803 6.7797,0.2708 7.5965,0.2708 6.8613,0 10.2918,-2.976 10.2918,-8.9277 0,-1.8036 -0.4899,-3.0662 -1.4701,-3.7876 -0.8168,-0.8116 -2.7777,-1.6235 -5.8816,-2.4351 -1.6337,-0.4509 -2.4503,-1.3972 -2.4503,-2.8401 v -5.6817 l 9.802,-5.6811 10.2917,10.957 c 0.9801,1.0821 1.5523,1.6682 1.7157,1.7584 v 0.5408 c 0,0.4509 -0.1639,0.7664 -0.4906,0.9467 l -2.94,1.4884 c -1.3069,0.6312 -1.9606,2.4343 -1.9606,5.4102 0,5.5008 3.8387,8.2518 11.5169,8.2518 0.1633,0 2.8594,-0.091 8.087,-0.2708 3.2673,-0.2705 6.4532,-0.4058 9.5571,-0.4058 1.797,0 4.4923,0.09 8.0863,0.2708 3.7574,0.2705 6.5342,0.4058 8.3312,0.4058 7.6782,0 11.5177,-2.6605 11.5177,-7.981 0,-4.9598 -3.0221,-7.4394 -9.0666,-7.4394 l -4.6565,0.27 c -1.6337,0 -3.3485,-1.0817 -5.1455,-3.2459 l -20.5842,-24.0781 13.4774,-7.3044 4.166,-2.2992 4.4109,-1.2176 3.921,0.4059 h 1.2252 c 6.0445,0 9.0665,-2.3899 9.0665,-7.1694 0,-5.0499 -4.084,-7.5744 -12.2522,-7.5744 -2.1238,0 -5.3911,0.1353 -9.802,0.4059 -4.2475,0.1803 -7.4333,0.27 -9.5571,0.27 -2.4504,0 -6.0446,-0.09 -10.7822,-0.27 -4.7376,-0.2706 -8.2495,-0.4059 -10.5366,-0.4059 -7.1881,0 -10.7823,2.2539 -10.7823,6.7628 0,2.7955 1.225,4.6442 3.6755,5.5459 l 3.6762,1.3526 c 0.4901,0.09 0.7347,0.3608 0.7347,0.8117 0,0.7214 -1.0612,1.8487 -3.185,3.3817 l -11.5176,8.5219 v -45.4496 c 0,-2.8857 -2.3685,-4.3284 -7.106,-4.3284 l -12.0074,0.6766 c -2.2871,0.1804 -5.31,0.1348 -9.0674,-0.1358 -4.5742,-0.3607 -7.6778,-0.5408 -9.3114,-0.5408 z m -393.0329,8.7919 c -15.3563,0 -23.4429,4.5541 -24.2597,13.662 h -1.4708 c -12.5791,0 -22.6257,2.0297 -30.1405,6.0877 -7.5148,3.9678 -11.272,9.2881 -11.272,15.9612 0,4.9598 1.7971,9.4683 5.3911,13.5263 -8.6583,4.7794 -12.9876,9.5144 -12.9876,14.2036 0,4.6893 3.6756,8.6117 11.0271,11.7679 -9.3118,3.7875 -13.968,8.6121 -13.968,14.4737 0,5.9517 4.2478,10.6859 12.7428,14.2029 8.6584,3.5169 20.4206,5.2752 35.2868,5.2752 15.8464,0 28.589,-2.2539 38.2276,-6.7628 9.8019,-4.5089 14.7025,-10.3704 14.7025,-17.5846 0,-8.116 -6.3709,-13.7077 -19.1134,-16.7738 -5.0643,-1.2625 -10.5371,-1.9838 -16.4182,-2.1642 -3.9208,-0.09 -8.8222,-0.2255 -14.7033,-0.4058 -14.0494,-0.3607 -21.074,-1.8483 -21.074,-4.4635 0,-1.0821 1.225,-2.119 3.6755,-3.1109 5.7177,1.7133 11.9257,2.57 18.6236,2.57 11.7623,0 21.3191,-2.1641 28.6705,-6.4927 7.5148,-4.4187 11.2728,-10.1 11.2728,-17.0437 0,-9.0178 -5.9634,-15.5559 -17.8891,-19.6139 v -0.8117 c 0,-1.2624 0.7352,-1.8934 2.2055,-1.8934 0.9802,0 1.7153,0.225 2.2054,0.6759 l 2.2054,1.3526 c 1.3069,0.9919 3.7577,1.4883 7.3517,1.4883 3.2673,0 6.0448,-0.767 8.3319,-2.3 2.2871,-1.533 3.4306,-3.4714 3.4306,-5.8161 0,-2.9758 -2.0424,-5.3657 -6.1265,-7.1693 -4.0841,-1.8937 -9.3931,-2.8409 -15.9277,-2.8409 z m 91.6284,8.3869 c 4.5742,0 8.4129,0.9015 11.5168,2.7051 3.2673,1.7134 4.9014,3.8327 4.9014,6.3576 0,2.8857 -1.8786,5.1852 -5.636,6.8986 -3.594,1.7133 -8.4954,2.57 -14.7033,2.57 -1.4703,0 -2.9406,-0.045 -4.4109,-0.135 v -12.5795 c 0,-3.8777 2.7776,-5.8168 8.332,-5.8168 z m -218.5749,4.5993 c -10.7821,0 -20.3389,2.7502 -28.6705,8.251 v -2.8409 c 0,-2.2544 -1.7971,-3.3809 -5.3911,-3.3809 -0.9802,0 -2.3682,0.045 -4.1652,0.135 -1.6337,0.09 -2.9409,0.135 -3.9211,0.135 -2.2871,0 -5.7998,-0.1353 -10.5374,-0.4058 -3.1039,-0.1804 -5.2271,-0.2701 -6.3706,-0.2701 -7.5148,0 -11.2728,2.7054 -11.2728,8.1161 0,4.8696 2.7776,7.3043 8.332,7.3043 0.6534,0 1.5516,-0.046 2.6951,-0.1358 1.1436,-0.1803 1.961,-0.27 2.4511,-0.27 2.1237,0 3.1849,1.8935 3.1849,5.681 v 26.5124 c 0,3.7874 -1.2249,5.681 -3.6754,5.681 -0.1634,0 -0.4902,-0.045 -0.9803,-0.135 h -1.2251 c -0.6535,-0.09 -1.4701,-0.1358 -2.4503,-0.1358 -5.2277,0 -7.8415,2.1649 -7.8415,6.4934 0,5.6812 4.0025,8.5219 12.0074,8.5219 1.797,0 4.4923,-0.1353 8.0863,-0.4058 3.5941,-0.1804 6.2893,-0.2708 8.0863,-0.2708 1.9604,0 4.7379,0.09 8.332,0.2708 3.7574,0.2705 6.6164,0.4058 8.5768,0.4058 7.188,0 10.7822,-2.8863 10.7822,-8.6577 0,-2.8857 -1.4703,-4.7343 -4.4108,-5.546 -2.7772,-0.9018 -4.166,-2.9754 -4.166,-6.2218 v -19.3431 c 0,-7.9356 4.0025,-11.9036 12.0074,-11.9036 7.5148,0 11.272,3.5621 11.272,10.6861 v 20.9664 c 0,2.9759 -1.4703,4.9142 -4.4109,5.816 -2.7772,0.9018 -4.1659,3.0211 -4.1659,6.3577 0,5.2303 3.4311,7.846 10.2925,7.846 1.797,0 4.4922,-0.1353 8.0862,-0.4058 3.5941,-0.1804 6.2893,-0.2708 8.0863,-0.2708 2.9406,0 5.8812,0.09 8.8217,0.2708 4.4109,0.2705 7.2699,0.4058 8.5769,0.4058 3.594,0 6.453,-0.767 8.5768,-2.3 2.2871,-1.6232 3.4305,-3.6969 3.4305,-6.2219 0,-4.3285 -2.6137,-6.4934 -7.8414,-6.4934 -0.9802,0 -1.7968,0.046 -2.4503,0.1358 h -0.9803 c -0.49,0.09 -0.8984,0.135 -1.2251,0.135 -2.4505,0 -3.6762,-1.8936 -3.6762,-5.681 v -27.7299 c 0,-6.4928 -2.9406,-11.633 -8.8217,-15.4204 -5.7178,-3.7875 -13.396,-5.681 -23.0345,-5.681 z m 344.1505,0.27 c -15.5197,0 -27.5272,3.1113 -36.0222,9.3336 -8.3316,6.1321 -12.4979,14.8799 -12.4979,26.2423 0,11.1821 4.1663,19.8386 12.4979,25.9708 8.495,6.132 20.3387,9.1985 35.5317,9.1985 15.3563,0 27.1185,-3.1561 35.2867,-9.4686 8.3317,-6.3125 12.498,-15.3309 12.498,-27.054 0,-10.8214 -4.1663,-19.2074 -12.498,-25.1591 -8.1682,-6.0419 -19.7666,-9.0635 -34.7962,-9.0635 z m 109.6006,0 c -15.5197,0 -27.5264,3.1113 -36.0214,9.3336 -8.3316,6.1321 -12.4979,14.8799 -12.4979,26.2423 0,11.1821 4.1663,19.8386 12.4979,25.9708 8.495,6.132 20.3387,9.1985 35.5316,9.1985 15.3564,0 27.1185,-3.1561 35.2868,-9.4686 8.3316,-6.3125 12.4972,-15.3309 12.4972,-27.054 0,-10.8214 -4.1656,-19.2074 -12.4972,-25.1591 -8.1683,-6.0419 -19.7674,-9.0635 -34.797,-9.0635 z m -584.193,0.1358 c -11.9256,0 -21.4824,1.4428 -28.6705,4.3285 -7.1881,2.7955 -10.7815,6.5377 -10.7815,11.2269 0,3.1563 1.7964,5.8168 5.3904,7.9811 3.594,2.074 8.0871,3.1109 13.4782,3.1109 4.2474,0 7.7594,-0.7662 10.5366,-2.2993 2.9405,-1.533 4.4108,-3.4273 4.4108,-5.6817 v -0.4059 c -0.1634,-0.8116 -0.2449,-1.6683 -0.2449,-2.57 0,-1.7134 1.7971,-2.5701 5.3911,-2.5701 6.2079,0 9.3115,2.2546 9.3115,6.7635 0,2.3446 -1.388,4.1036 -4.1652,5.2759 -2.6139,1.1723 -7.5153,2.1636 -14.7033,2.9752 -13.5593,1.4428 -23.1161,3.8327 -28.6705,7.1693 -5.3911,3.2464 -8.0863,8.1616 -8.0863,14.7445 0,6.2223 3.022,11.1815 9.0665,14.8788 6.2079,3.6072 14.4582,5.411 24.7502,5.411 11.5989,0 21.6456,-2.2995 30.1405,-6.8985 3.104,4.599 9.1481,6.8985 18.1332,6.8985 5.5544,0 10.129,-0.992 13.723,-2.976 3.7574,-2.074 5.636,-4.5993 5.636,-7.5751 0,-4.2384 -2.6137,-6.3569 -7.8414,-6.3569 h -0.7354 c -0.4901,0.09 -0.8169,0.135 -0.9803,0.135 -0.6534,0.09 -1.3063,0.135 -1.9597,0.135 -1.9604,0 -2.9409,-1.5332 -2.9409,-4.5992 v -26.7825 c 0,-7.7553 -3.2673,-13.3918 -9.8019,-16.9087 -6.3713,-3.6071 -16.5002,-5.4102 -30.3862,-5.4102 z m 230.9233,14.4737 c 2.6138,0 4.8192,0.9016 6.6163,2.7051 1.9603,1.7134 2.94,3.8775 2.94,6.4927 0,2.7053 -0.8982,4.9599 -2.6952,6.7635 -1.797,1.8035 -4.0839,2.7051 -6.8611,2.7051 -6.5346,0 -9.802,-3.0209 -9.802,-9.0628 0,-6.4026 3.2674,-9.6036 9.802,-9.6036 z m 243.6691,1.6226 c 4.7376,0 8.4133,1.7134 11.0271,5.1401 2.7772,3.4268 4.1652,8.0713 4.1652,13.9329 0,12.8053 -5.309,19.208 -15.9277,19.208 -4.9009,0 -8.8219,-1.6685 -11.7625,-5.0051 -2.7772,-3.4268 -4.166,-8.0257 -4.166,-13.7971 0,-0.6312 0.082,-1.1276 0.2457,-1.4883 0.4901,-11.9937 5.9628,-17.9905 16.4182,-17.9905 z m 109.6006,0 c 4.7376,0 8.4133,1.7134 11.0271,5.1401 2.7772,3.4268 4.166,8.0713 4.166,13.9329 0,12.8053 -5.309,19.208 -15.9277,19.208 -4.901,0 -8.822,-1.6685 -11.7625,-5.0051 -2.7772,-3.4268 -4.166,-8.0257 -4.166,-13.7971 0,-0.6312 0.082,-1.1276 0.2456,-1.4883 0.4901,-11.9937 5.9621,-17.9905 16.4175,-17.9905 z m -238.6068,13.527 c 7.5148,0 13.6412,1.1273 18.3788,3.3818 4.9009,2.1642 7.3509,4.9593 7.3509,8.3861 0,6.8535 -7.0246,10.2802 -21.074,10.2802 -6.3712,0 -9.5571,-1.4427 -9.5571,-4.3284 v -17.5847 c 1.6337,-0.09 3.2678,-0.135 4.9014,-0.135 z m -336.5189,9.7394 -0.2456,2.5701 v 5.0043 c 0,2.525 -1.3065,4.5995 -3.9203,6.2227 -2.4505,1.6232 -5.6364,2.435 -9.5571,2.435 -6.8614,0 -10.2917,-2.2097 -10.2917,-6.6285 0,-2.2544 0.9796,-3.923 2.94,-5.0051 2.1238,-1.1723 6.0448,-2.2091 11.7625,-3.1109 l 7.3517,-1.2175 z m 211.0737,27.1883 c 4.0842,0.2705 7.8414,0.4507 11.272,0.5409 11.1089,0.3607 16.6632,2.3903 16.6632,6.0876 0,4.4187 -6.371,6.6277 -19.1135,6.6277 -5.2276,0 -9.6385,-0.631 -13.2325,-1.8934 -3.4307,-1.2625 -5.1462,-2.8862 -5.1462,-4.8701 0,-2.7955 3.1858,-4.9597 9.557,-6.4927 z"
         style="stroke-width:0.390583" />
      <path
         class="st0"
         d="m 1566.7,487.6 c 4.3,2.9 8.8,5.6 12.3,9.4 -4.4,-2.7 -8.4,-6.1 -12.3,-9.4 z"
         id="path22" />
    </g>
  </g>
  <style
     type="text/css"
     id="style10">
	.st0{opacity:7.000000e-02;enable-background:new    ;}
</style>
</svg>
